# File created by Blade
# Date/Time:  Mon Sep 22 19:00:17 2014
# Frame Rate: 120.000 fps
#------------------------------------------------------
:FULLY-SPECIFIED
:DEGREES
2205
root -0.660975 32.799322 -3.817717 41.295580 0.141486 0.416835
Spine -45.987470 -4.586338 -2.623457
Head 5.134434 -10.510072 3.141357
LeftShoulder -14.188188 42.627421 8.639074
LeftArm 71.389704 34.885520 -51.617885
LeftForeArm 7.773620 0.000000 6.838876
LeftHand -18.557519 -0.000000 -6.047993
LeftHandThumb1 -26.253704 0.000000 33.147579
RightShoulder -27.613157 -8.935800 -49.950875
RightArm -284.107637 60.770079 -312.040821
RightForeArm 86.669008 0.000000 -8.367317
RightHand 24.869832 -0.000000 -3.115413
RightHandThumb1 -24.326973 -0.000000 -32.862282
LeftUpLeg -35.683258 6.661741 -2.081089
LeftLeg -0.467254 -0.000000 0.000000
LeftFoot -2.281790 0.102591 -3.101614
LeftToeBase 1.970107 -0.000000 -0.000000
RightUpLeg -36.374674 -10.277133 5.620424
RightLeg -2.103168 -0.000000 0.000000
RightFoot -5.326072 -4.167126 19.400372
RightToeBase 16.133738 -0.000000 -0.000000
2206
root -0.652868 32.799189 -3.810926 41.314254 0.192405 0.431917
Spine -46.023899 -4.623802 -2.566473
Head 5.064151 -10.377389 3.102787
LeftShoulder -14.184752 42.644748 8.640621
LeftArm 71.464555 34.939397 -51.467770
LeftForeArm 7.547485 -0.000000 6.764793
LeftHand -18.695438 0.000000 -5.955760
LeftHandThumb1 -26.253704 0.000000 33.147579
RightShoulder -27.546818 -9.175954 -49.753546
RightArm -283.948487 60.996332 -311.984260
RightForeArm 86.549036 -0.000000 -8.257568
RightHand 24.829945 -0.000000 -2.761596
RightHandThumb1 -24.326973 -0.000000 -32.862282
LeftUpLeg -35.695313 6.641147 -2.094811
LeftLeg -0.468499 -0.000000 0.000000
LeftFoot -2.270907 0.044068 -3.086025
LeftToeBase 1.933152 -0.000000 -0.000000
RightUpLeg -36.372408 -10.270996 5.585102
RightLeg -2.100599 -0.000000 0.000000
RightFoot -5.371663 -4.245189 19.377368
RightToeBase 16.139159 -0.000000 -0.000000
2207
root -0.645196 32.798852 -3.804870 41.327627 0.252287 0.449574
Spine -46.056531 -4.657199 -2.514565
Head 5.011558 -10.298414 3.067164
LeftShoulder -14.173118 42.664415 8.641507
LeftArm 71.490086 34.938917 -51.449768
LeftForeArm 7.575591 -0.000000 6.618457
LeftHand -18.693690 -0.000000 -5.926050
LeftHandThumb1 -26.253704 0.000000 33.147579
RightShoulder -27.497267 -9.319880 -49.647590
RightArm -283.957044 61.109994 -312.050738
RightForeArm 86.385737 0.000000 -8.111732
RightHand 24.616279 -0.000000 -2.902703
RightHandThumb1 -24.326973 -0.000000 -32.862282
LeftUpLeg -35.702615 6.585485 -2.083652
LeftLeg -0.469504 -0.000000 0.000000
LeftFoot -2.269912 0.020130 -3.109457
LeftToeBase 1.939733 -0.000000 -0.000000
RightUpLeg -36.376086 -10.300560 5.576021
RightLeg -2.088795 -0.000000 0.000000
RightFoot -5.392689 -4.291570 19.395732
RightToeBase 16.104342 -0.000000 -0.000000
2208
root -0.638421 32.798778 -3.798020 41.322466 0.307520 0.462817
Spine -46.075402 -4.681931 -2.458956
Head 4.970193 -10.240267 3.023380
LeftShoulder -14.155197 42.654904 8.634172
LeftArm 71.513414 34.961069 -51.356121
LeftForeArm 7.506679 -0.000000 6.491080
LeftHand -18.698658 -0.000000 -5.965244
LeftHandThumb1 -26.253704 0.000000 33.147579
RightShoulder -27.472697 -9.100176 -49.827567
RightArm -284.438731 60.848178 -312.379421
RightForeArm 86.233598 -0.000000 -7.877494
RightHand 24.720746 -0.000000 -2.736569
RightHandThumb1 -24.326973 -0.000000 -32.862282
LeftUpLeg -35.694024 6.538550 -2.071417
LeftLeg -0.459562 -0.000000 0.000000
LeftFoot -2.278681 0.002100 -3.109558
LeftToeBase 1.960642 -0.000000 -0.000000
RightUpLeg -36.355848 -10.305625 5.550978
RightLeg -2.076593 -0.000000 0.000000
RightFoot -5.439354 -4.333016 19.435911
RightToeBase 16.082321 -0.000000 -0.000000
2209
root -0.630630 32.797897 -3.791899 41.324974 0.343767 0.484793
Spine -46.095535 -4.704976 -2.431642
Head 4.918489 -10.218812 3.028453
LeftShoulder -14.168290 42.652362 8.632540
LeftArm 71.532874 34.964355 -51.319151
LeftForeArm 7.481378 -0.000000 6.343174
LeftHand -18.806700 -0.000000 -5.689851
LeftHandThumb1 -26.253704 0.000000 33.147579
RightShoulder -27.425579 -9.166303 -49.767661
RightArm -284.495791 60.904895 -312.470484
RightForeArm 86.259719 -0.000000 -7.727027
RightHand 24.867061 0.000000 -2.172636
RightHandThumb1 -24.326973 -0.000000 -32.862282
LeftUpLeg -35.694974 6.494887 -2.074735
LeftLeg -0.442299 -0.000000 0.000000
LeftFoot -2.271634 -0.019751 -3.043186
LeftToeBase 1.879229 -0.000000 -0.000000
RightUpLeg -36.345248 -10.308656 5.514857
RightLeg -2.069507 -0.000000 0.000000
RightFoot -5.499792 -4.400230 19.410230
RightToeBase 16.144986 -0.000000 -0.000000
2210
root -0.624842 32.797000 -3.784702 41.320049 0.380324 0.489267
Spine -46.116719 -4.705894 -2.405923
Head 4.870967 -10.231206 3.024450
LeftShoulder -14.161844 42.670377 8.636170
LeftArm 71.561016 34.960382 -51.291438
LeftForeArm 7.612149 -0.000000 6.201381
LeftHand -18.728147 -0.000000 -5.953965
LeftHandThumb1 -26.253704 0.000000 33.147579
RightShoulder -27.385009 -9.276091 -49.698014
RightArm -284.411283 60.991758 -312.387783
RightForeArm 86.044461 -0.000000 -7.454067
RightHand 24.956197 -0.000000 -2.303404
RightHandThumb1 -24.326973 -0.000000 -32.862282
LeftUpLeg -35.686395 6.441556 -2.048572
LeftLeg -0.430229 -0.000000 0.000000
LeftFoot -2.272890 0.025794 -3.011587
LeftToeBase 1.823385 -0.000000 -0.000000
RightUpLeg -36.333107 -10.317523 5.501990
RightLeg -2.046721 -0.000000 0.000000
RightFoot -5.516309 -4.420448 19.414534
RightToeBase 16.066700 -0.000000 -0.000000
2211
root -0.617746 32.796155 -3.778557 41.311539 0.417356 0.505604
Spine -46.125224 -4.712276 -2.386644
Head 4.827848 -10.268364 3.044046
LeftShoulder -14.154929 42.671678 8.632937
LeftArm 71.552219 34.949631 -51.282894
LeftForeArm 7.609161 -0.000000 6.089665
LeftHand -18.774094 -0.000000 -5.824284
LeftHandThumb1 -26.253704 0.000000 33.147579
RightShoulder -27.382102 -9.171082 -49.778332
RightArm -284.498949 60.871062 -312.371210
RightForeArm 85.861546 -0.000000 -7.164091
RightHand 25.038170 -0.000000 -2.511065
RightHandThumb1 -24.326973 -0.000000 -32.862282
LeftUpLeg -35.679206 6.386961 -2.039326
LeftLeg -0.408128 -0.000000 0.000000
LeftFoot -2.314068 0.020268 -3.092031
LeftToeBase 1.916985 -0.000000 -0.000000
RightUpLeg -36.325334 -10.359919 5.497515
RightLeg -2.022033 -0.000000 0.000000
RightFoot -5.556853 -4.420579 19.429828
RightToeBase 16.099603 -0.000000 -0.000000
2212
root -0.611588 32.795358 -3.771805 41.309766 0.436851 0.512943
Spine -46.141822 -4.701076 -2.382906
Head 4.770879 -10.303075 3.074606
LeftShoulder -14.171943 42.702232 8.626925
LeftArm 71.556111 34.913852 -51.319995
LeftForeArm 7.572215 -0.000000 5.958107
LeftHand -18.854437 -0.000000 -5.651485
LeftHandThumb1 -26.253704 0.000000 33.147579
RightShoulder -27.358114 -9.213576 -49.715296
RightArm -284.370272 60.945246 -312.257298
RightForeArm 85.700674 -0.000000 -6.895301
RightHand 25.011731 -0.000000 -2.031485
RightHandThumb1 -24.326973 -0.000000 -32.862282
LeftUpLeg -35.675938 6.349808 -2.033085
LeftLeg -0.385959 -0.000000 0.000000
LeftFoot -2.335451 0.035765 -3.079866
LeftToeBase 1.905577 -0.000000 -0.000000
RightUpLeg -36.316927 -10.396064 5.500270
RightLeg -2.014018 -0.000000 0.000000
RightFoot -5.577633 -4.416367 19.437585
RightToeBase 16.106249 -0.000000 -0.000000
2213
root -0.606149 32.794642 -3.766120 41.308777 0.455676 0.516151
Spine -46.154274 -4.687854 -2.377760
Head 4.714872 -10.341360 3.095424
LeftShoulder -14.180046 42.707404 8.636926
LeftArm 71.499211 34.878148 -51.413460
LeftForeArm 7.616846 -0.000000 5.857041
LeftHand -18.894080 -0.000000 -5.689244
LeftHandThumb1 -26.253704 0.000000 33.147579
RightShoulder -27.345822 -9.445487 -49.531935
RightArm -283.881836 61.191780 -311.857399
RightForeArm 85.574401 -0.000000 -6.646590
RightHand 25.095702 0.000000 -2.080106
RightHandThumb1 -24.326973 -0.000000 -32.862282
LeftUpLeg -35.673359 6.297804 -2.009767
LeftLeg -0.364019 -0.000000 0.000000
LeftFoot -2.355113 0.074323 -3.082120
LeftToeBase 1.883922 -0.000000 -0.000000
RightUpLeg -36.315686 -10.423914 5.503554
RightLeg -1.993810 -0.000000 0.000000
RightFoot -5.584826 -4.395316 19.442808
RightToeBase 16.074555 -0.000000 -0.000000
2214
root -0.601095 32.795183 -3.758866 41.277431 0.468323 0.520014
Spine -46.140127 -4.645903 -2.387846
Head 4.659296 -10.443907 3.098295
LeftShoulder -14.144264 42.718726 8.640235
LeftArm 71.423563 34.832462 -51.471180
LeftForeArm 7.546954 0.000000 5.819676
LeftHand -18.927211 -0.000000 -5.690884
LeftHandThumb1 -26.253704 0.000000 33.147579
RightShoulder -27.428164 -8.873305 -49.928116
RightArm -284.325670 60.617565 -311.963777
RightForeArm 85.208339 -0.000000 -6.229893
RightHand 25.335145 -0.000000 -1.892663
RightHandThumb1 -24.326973 -0.000000 -32.862282
LeftUpLeg -35.632055 6.241891 -1.979954
LeftLeg -0.353181 -0.000000 0.000000
LeftFoot -2.374146 0.134626 -3.063913
LeftToeBase 1.921706 -0.000000 -0.000000
RightUpLeg -36.282416 -10.482986 5.524180
RightLeg -1.982720 -0.000000 0.000000
RightFoot -5.584421 -4.364698 19.405393
RightToeBase 16.104341 -0.000000 -0.000000
